Coordinates
version=1
nRows=14
nColumns=40
inDegrees=yes

Units are S.I. units (second, meters, Newtons, ...)
Angles are in degrees.

endheader
time	pelvis_tilt	pelvis_list	pelvis_rotation	pelvis_tx	pelvis_ty	pelvis_tz	hip_flexion_r	hip_adduction_r	hip_rotation_r	knee_angle_r	knee_angle_r_beta	ankle_angle_r	subtalar_angle_r	mtp_angle_r	hip_flexion_l	hip_adduction_l	hip_rotation_l	knee_angle_l	knee_angle_l_beta	ankle_angle_l	subtalar_angle_l	mtp_angle_l	lumbar_extension	lumbar_bending	lumbar_rotation	arm_flex_r	arm_add_r	arm_rot_r	elbow_flex_r	pro_sup_r	wrist_flex_r	wrist_dev_r	arm_flex_l	arm_add_l	arm_rot_l	elbow_flex_l	pro_sup_l	wrist_flex_l	wrist_dev_l
      4.81892857	     -2.79424293	     -0.96293601	     -6.24172290	      0.72748494	      0.92562545	      0.43867010	     27.08387429	     -4.29509071	    -11.22023828	     15.33126048	     15.33126048	      2.45255318	      7.12760057	      8.43181626	      0.17158943	      0.64767260	    -13.07267410	     10.43226621	     10.43226621	     14.42494438	     -3.16311100	    -11.34219150	     -9.16114447	      1.23698100	     -0.43626325	    -16.40713666	    -14.42405071	     -9.97596454	     24.29332144	     47.39625776	      0.00000000	      0.00000000	     13.07801269	    -16.88644163	    -12.41088823	     72.29225958	     47.30226279	      0.00000000	      0.00000000
      4.83285714	     -2.89259227	     -0.83546798	     -6.27468046	      0.72792837	      0.92430946	      0.44025987	     27.01599139	     -4.26554753	    -11.33473228	     15.44162069	     15.44162069	      2.07665716	      7.03705642	      8.51394702	     -0.24969885	      0.72511894	    -13.08545409	     10.43912661	     10.43912661	     14.81199299	     -3.19001016	    -11.47307676	     -8.91364259	      1.11652453	     -0.63727149	    -16.50412015	    -14.36135117	     -9.99250859	     24.29937307	     47.39523106	      0.00000000	      0.00000000	     13.23279139	    -16.86504172	    -12.41758909	     72.37472017	     47.30562368	      0.00000000	      0.00000000
      4.84678571	     -2.82221220	     -0.65105624	     -6.21526125	      0.72869706	      0.92317101	      0.44194278	     26.74022176	     -4.29397536	    -11.02920803	     15.73262265	     15.73262265	      0.92318688	      6.03205407	      5.63132274	     -0.91766183	      0.79181176	    -13.69853750	     10.42922726	     10.42922726	     15.79341634	     -1.60665183	    -10.70207145	     -8.91249424	      0.91969975	     -0.91057874	    -16.95232763	    -14.12236785	    -10.78139437	     25.77102142	     47.33261454	      0.00000000	      0.00000000	     13.24078024	    -16.54051788	    -13.31982719	     73.24698610	     47.41159216	      0.00000000	      0.00000000
      4.86071429	     -2.91920387	     -0.62249367	     -6.06252285	      0.72947774	      0.92202107	      0.44353496	     26.57498025	     -4.28590484	    -11.15321749	     16.22867435	     16.22867435	      0.76736146	      5.69401017	      5.48010432	     -1.37868441	      0.74454709	    -13.52563327	     10.40352389	     10.40352389	     16.18165946	     -1.50466050	    -10.77513811	     -8.68942221	      0.94611548	     -1.12292089	    -16.82390678	    -13.95748481	    -10.76689436	     25.82863283	     47.32705166	      0.00000000	      0.00000000	     13.34383455	    -16.33715659	    -13.22541854	     73.24624887	     47.40669844	      0.00000000	      0.00000000
      4.87464286	     -2.94024400	     -0.50819612	     -5.93001166	      0.73039420	      0.92085504	      0.44539328	     26.43496961	     -4.25334093	    -10.51067734	     16.91624047	     16.91624047	     -0.35604210	      4.01237991	      1.65471196	     -1.83639386	      0.70432295	    -13.81789077	     10.64941759	     10.64941759	     17.39120271	     -0.43147479	     -9.18495981	     -8.52790649	      0.86505297	     -1.22133824	    -16.75634805	    -13.80834093	    -10.78235063	     26.29246953	     47.23506159	      0.00000000	      0.00000000	     13.56021047	    -16.11421189	    -13.23260961	     72.86832634	     47.43481889	      0.00000000	      0.00000000
      4.88857143	     -3.01567706	     -0.64232003	     -5.67108044	      0.73135012	      0.91999244	      0.44716775	     26.20979619	     -4.12771241	    -10.58155810	     17.61885235	     17.61885235	     -0.15689777	      3.53351940	      1.38752883	     -2.32081482	      0.44606129	    -13.56029451	     10.65366242	     10.65366242	     17.71646089	     -0.34539483	     -9.20806258	     -8.37358475	      1.09569935	     -1.39602269	    -16.36998404	    -13.61210331	    -10.74550003	     26.46709594	     47.22466487	      0.00000000	      0.00000000	     13.50915050	    -15.75530682	    -13.07655781	     72.79459617	     47.42323517	      0.00000000	      0.00000000
      4.90250000	     -3.08581059	     -0.64851844	     -5.45203024	      0.73224486	      0.91907077	      0.44915207	     26.28759130	     -4.04989026	     -9.98475607	     18.82952548	     18.82952548	      0.14993906	      2.03100567	      0.62666311	     -2.72960752	      0.30233021	    -13.35221772	     10.79687007	     10.79687007	     18.18720706	     -0.26524692	     -8.77595228	     -8.22119386	      1.15412971	     -1.64593152	    -15.86470631	    -13.52506559	    -10.67714273	     26.83266123	     47.19653398	      0.00000000	      0.00000000	     13.41809143	    -15.64203420	    -13.01885537	     72.39068811	     47.41627554	      0.00000000	      0.00000000
      4.91642857	     -3.11145075	     -0.90775395	     -5.14524210	      0.73322346	      0.91855424	      0.45121351	     26.07515840	     -3.75400908	     -9.77786842	     19.67945469	     19.67945469	      0.54874436	      1.02570704	      0.05172285	     -3.13915893	     -0.14763916	    -13.02340823	     11.06650905	     11.06650905	     18.61701879	     -0.29929991	     -8.39840748	     -8.17436621	      1.53297365	     -1.79523493	    -15.29101732	    -13.45248631	    -10.59594044	     27.17598482	     47.17322074	      0.00000000	      0.00000000	     13.28114849	    -15.30958419	    -12.86870320	     72.04320142	     47.40148911	      0.00000000	      0.00000000
      4.93035714	     -3.29057494	     -1.13254709	     -4.82111412	      0.73403516	      0.91802815	      0.45350234	     26.04097504	     -3.35130857	     -9.09683474	     20.44526364	     20.44526364	      0.78695379	     -0.84669880	     -0.87685303	     -3.15845020	     -0.64243517	    -12.67343183	     11.76081826	     11.76081826	     19.44651717	     -0.35070364	     -7.00638184	     -7.94153936	      1.85797039	     -2.02779617	    -14.59711105	    -13.31730565	    -10.31535181	     27.86494687	     47.10722981	      0.00000000	      0.00000000	     13.11849545	    -15.04194183	    -12.69308810	     71.13300760	     47.38031883	      0.00000000	      0.00000000
      4.94428571	     -3.27176105	     -1.46484690	     -4.49962742	      0.73495318	      0.91797961	      0.45593809	     25.74896751	     -2.93872132	     -8.93034679	     21.17311168	     21.17311168	      1.31807984	     -1.84962207	     -1.51960719	     -3.36377765	     -1.26570036	    -12.37676477	     12.50560986	     12.50560986	     20.03829335	     -0.44694495	     -6.05847436	     -7.98545838	      2.25495894	     -2.10501592	    -13.83546085	    -13.24942538	    -10.07596472	     28.48179199	     47.05469097	      0.00000000	      0.00000000	     12.93093170	    -14.74584182	    -12.44868567	     70.42644059	     47.35507932	      0.00000000	      0.00000000
      4.95821429	     -3.36778501	     -1.83480848	     -4.14980475	      0.73580095	      0.91803127	      0.45855049	     25.50551925	     -2.42030070	     -8.67749539	     21.71229820	     21.71229820	      1.80385414	     -3.09176078	     -2.02815998	     -3.26611681	     -2.00063401	    -12.04831109	     13.58332270	     13.58332270	     20.82533182	     -0.54286168	     -4.54204983	     -7.87465979	      2.72755177	     -2.20148061	    -13.07599634	    -13.22275039	     -9.67142854	     29.38222094	     46.96978429	      0.00000000	      0.00000000	     12.68951194	    -14.43579152	    -12.08485793	     69.30410584	     47.31707910	      0.00000000	      0.00000000
      4.97214286	     -3.23506095	     -2.14463155	     -3.89223641	      0.73694214	      0.91861900	      0.46134374	     24.99362511	     -2.03197578	     -8.74698031	     22.23623257	     22.23623257	      2.54926835	     -3.42594389	     -2.36835242	     -3.65022633	     -2.59590599	    -11.76704665	     14.15885896	     14.15885896	     20.83786695	     -0.74849275	     -4.37393700	     -8.01952938	      3.05138476	     -2.00986825	    -12.12819009	    -13.07071523	     -9.58690455	     29.83285452	     46.94972800	      0.00000000	      0.00000000	     12.24475313	    -13.85710681	    -11.80956073	     68.92695408	     47.28851525	      0.00000000	      0.00000000
      4.98607143	     -3.28221458	     -2.53851428	     -3.51252927	      0.73766735	      0.91904401	      0.46434292	     24.62263386	     -1.42201509	     -8.49961649	     22.57711952	     22.57711952	      3.10116327	     -4.76536524	     -2.45230062	     -3.07262905	     -3.51898400	    -11.41146129	     16.24445429	     16.24445429	     22.01338949	     -0.94822210	     -1.91149947	     -7.95953168	      3.50418600	     -1.96532900	    -11.67042820	    -13.27413915	     -8.67370117	     31.84506769	     46.75644411	      0.00000000	      0.00000000	     12.42536094	    -13.75773021	    -11.12200025	     66.43816595	     47.21745417	      0.00000000	      0.00000000
      5.00000000	     -3.24834885	     -2.89741607	     -3.18327878	      0.73859108	      0.91975071	      0.46741007	     24.05469314	     -0.94630427	     -8.74294487	     22.74600638	     22.74600638	      3.75264451	     -4.99430645	     -2.64668863	     -2.69445737	     -4.33839987	    -10.89225738	     17.98640810	     17.98640810	     21.96876642	     -1.66739027	     -1.99528103	     -7.98933930	      3.86869171	     -2.10113819	    -10.51113728	    -13.26326961	     -8.57263941	     32.74439572	     46.71136524	      0.00000000	      0.00000000	     11.77267188	    -13.60874371	    -10.78421795	     65.49573475	     47.17683281	      0.00000000	      0.00000000
